<svg width="256" height="256" viewBox="0 0 256 256" fill="none" xmlns="http://www.w3.org/2000/svg">
<path d="M202.83 114.83C202.459 115.202 202.018 115.497 201.532 115.698C201.046 115.9 200.526 116.003 200 116.003C199.475 116.003 198.954 115.9 198.469 115.698C197.983 115.497 197.542 115.202 197.17 114.83L132 49.6602V216C132 217.061 131.579 218.078 130.829 218.829C130.079 219.579 129.061 220 128 220C126.939 220 125.922 219.579 125.172 218.829C124.422 218.078 124 217.061 124 216V49.6602L58.8303 114.83C58.4586 115.202 58.0174 115.497 57.5319 115.698C57.0463 115.899 56.5259 116.002 56.0003 116.002C55.4747 116.002 54.9543 115.899 54.4687 115.698C53.9831 115.497 53.5419 115.202 53.1703 114.83C52.7986 114.459 52.5038 114.017 52.3027 113.532C52.1016 113.046 51.998 112.526 51.998 112C51.998 111.475 52.1016 110.954 52.3027 110.469C52.5038 109.983 52.7986 109.542 53.1703 109.17L125.17 37.1702C125.542 36.7983 125.983 36.5033 126.469 36.302C126.954 36.1007 127.475 35.9971 128 35.9971C128.526 35.9971 129.046 36.1007 129.532 36.302C130.018 36.5033 130.459 36.7983 130.83 37.1702L202.83 109.17C203.202 109.542 203.497 109.983 203.699 110.468C203.9 110.954 204.003 111.475 204.003 112C204.003 112.526 203.9 113.046 203.699 113.532C203.497 114.018 203.202 114.459 202.83 114.83Z" fill="black"/>
</svg>
