<svg width="467" height="94" viewBox="0 0 467 94" fill="none" xmlns="http://www.w3.org/2000/svg">
<path fill-rule="evenodd" clip-rule="evenodd" d="M279.424 34.8624C265.173 34.8624 251.013 34.8624 236.787 34.8624C236.227 36.2214 235.681 37.5494 235.08 39.0064C249.255 39.2454 263.311 39.4814 277.415 39.7184C277.359 40.2904 277.082 40.6955 276.794 41.0845C276.061 42.0715 275.089 42.7714 274.015 43.3404C272.084 44.3674 269.997 44.8994 267.859 45.2434C265.56 45.6124 263.242 45.7534 260.913 45.7524C251.751 45.7464 242.589 45.7494 233.427 45.7494C233.101 45.7494 232.775 45.7494 232.397 45.7494C231.805 47.1784 231.222 48.5794 230.664 49.9194C230.726 50.0364 230.735 50.0654 230.754 50.0824C230.77 50.1004 230.796 50.1144 230.82 50.1194C230.873 50.1334 230.927 50.1415 230.981 50.1495C231.007 50.1535 231.035 50.1534 231.062 50.1554C231.117 50.1564 231.171 50.1574 231.226 50.1574C231.308 50.1574 231.39 50.1574 231.472 50.1574C245.148 50.1574 258.822 50.1574 272.498 50.1584C272.552 50.1584 272.607 50.1604 272.662 50.1614C272.688 50.1614 272.716 50.1614 272.744 50.1644C272.771 50.1674 272.798 50.1704 272.825 50.1744C272.851 50.1794 272.881 50.1794 272.906 50.1894C272.931 50.1994 272.952 50.2184 273.028 50.2664C273.135 50.8544 272.906 51.4005 272.621 51.9255C272.11 52.8655 271.328 53.5424 270.43 54.0924C269.061 54.9304 267.554 55.4124 265.999 55.7504C262.634 56.4884 259.219 56.5334 255.797 56.4474C255.249 56.4354 254.703 56.4194 254.157 56.4194C244.612 56.4174 235.067 56.4174 225.521 56.4174C223.487 56.4174 221.484 56.1694 219.532 55.5904C218.37 55.2424 217.292 54.7414 216.419 53.8504C215.377 52.7864 215.191 51.5934 215.722 50.2344C216.46 48.3524 217.183 46.4644 217.91 44.5794C219.018 41.6974 220.164 38.8284 221.213 35.9274C221.894 34.0444 223.095 32.6214 224.689 31.4854C226.874 29.9254 229.348 29.0774 231.976 28.7174C233.596 28.4964 235.241 28.3734 236.875 28.3674C246.941 28.3364 257.005 28.3474 267.07 28.3544C269.922 28.3574 272.745 28.6584 275.518 29.3494C276.528 29.6014 277.507 29.9394 278.398 30.4994C279.315 31.0724 279.814 31.8314 279.631 32.9614C279.536 33.5524 279.5 34.1534 279.424 34.8624Z" fill="white"/>
<path fill-rule="evenodd" clip-rule="evenodd" d="M324.918 56.9023C324.656 56.9023 324.393 56.9023 324.13 56.9023C319.263 56.9023 314.396 56.8923 309.529 56.9163C308.959 56.9193 308.564 56.7573 308.182 56.3413C306.166 54.1433 304.126 51.9733 302.093 49.7923C301.796 49.4743 301.495 49.1613 301.169 48.8163C300.926 48.9573 300.713 49.0703 300.511 49.2003C298.926 50.2253 297.351 51.2583 295.76 52.2743C292.648 54.2573 289.347 55.8123 285.691 56.4843C284.622 56.6793 283.523 56.7843 282.435 56.7893C278.853 56.8153 275.271 56.7763 271.689 56.7613C271.447 56.7613 271.202 56.7613 270.973 56.7613C270.954 56.6903 270.94 56.6633 270.941 56.6373C270.942 56.6143 270.956 56.5853 270.973 56.5713C271.036 56.5203 271.101 56.4683 271.168 56.4253C271.307 56.3383 271.449 56.2553 271.59 56.1733C279.095 51.7893 286.6 47.4073 294.104 43.0243C294.15 42.9973 294.193 42.9633 294.235 42.9263C294.254 42.9103 294.267 42.8873 294.346 42.7803C290.271 38.2653 286.18 33.7333 281.975 29.0743C282.361 29.0543 282.566 29.0353 282.771 29.0313C285.095 28.9983 287.42 28.9723 289.742 28.9343C290.862 28.9183 291.986 28.8013 293.101 28.8583C296.989 29.0513 300.294 30.5363 302.933 33.4393C303.942 34.5493 304.971 35.6423 306.026 36.7803C306.314 36.6233 306.576 36.4893 306.827 36.3393C308.778 35.1833 310.75 34.0603 312.67 32.8553C315.26 31.2293 318.102 30.3113 321.057 29.6903C323.937 29.0853 326.851 28.9293 329.785 29.0443C331.37 29.1063 332.955 29.1543 334.539 29.2133C334.861 29.2273 335.183 29.2633 335.533 29.3733C333.115 31.0093 330.619 32.4843 328.148 33.9973C325.629 35.5383 323.106 37.0693 320.586 38.6053C318.09 40.1263 315.596 41.6483 313.031 43.2113C317.047 47.7553 321.019 52.2493 324.99 56.7413C324.969 56.7933 324.943 56.8483 324.918 56.9023Z" fill="white"/>
<path fill-rule="evenodd" clip-rule="evenodd" d="M132.501 45.4236C132.024 46.4956 131.535 47.4746 131.144 48.4926C129.771 52.0746 127.157 54.2826 123.567 55.4326C121.179 56.1956 118.724 56.1966 116.257 56.0476C115.438 55.9976 114.62 55.9516 113.801 55.8966C113.672 55.8876 113.546 55.8436 113.355 55.8016C113.44 55.5316 113.497 55.3016 113.582 55.0816C116.145 48.3986 118.676 41.7036 121.292 35.0416C122.767 31.2826 125.669 29.2116 129.601 28.5466C130.405 28.4096 131.233 28.3766 132.051 28.3756C146.52 28.3656 160.987 28.3686 175.455 28.3686C175.775 28.3686 176.095 28.3686 176.436 28.3686C176.438 29.1856 176.134 29.7906 175.751 30.3616C175.064 31.3886 174.107 32.1046 173.03 32.6726C171.141 33.6706 169.101 34.1936 166.999 34.4036C165.043 34.5986 163.074 34.7206 161.11 34.7296C153.232 34.7666 145.356 34.7456 137.478 34.7456C137.152 34.7456 136.825 34.7456 136.414 34.7456C135.868 36.0756 135.324 37.4026 134.804 38.6726C134.845 38.7786 134.85 38.8066 134.867 38.8226C134.884 38.8426 134.913 38.8566 134.939 38.8606C135.02 38.8716 135.101 38.8876 135.181 38.8876C144.808 38.8976 154.436 38.9046 164.062 38.9126C164.087 38.9126 164.112 38.9346 164.233 38.9926C164.194 39.2386 164.177 39.5256 164.096 39.7956C163.73 41.0206 162.963 41.9676 161.98 42.7476C160.427 43.9846 158.61 44.6466 156.705 45.0896C153.995 45.7216 151.24 45.8416 148.473 45.7806C143.471 45.6656 138.468 45.5426 133.465 45.4246C133.165 45.4166 132.866 45.4236 132.501 45.4236Z" fill="white"/>
<path fill-rule="evenodd" clip-rule="evenodd" d="M346.087 46.2333C345.636 47.3623 345.141 48.4312 344.776 49.5422C343.544 53.2942 340.87 55.4233 337.162 56.4073C335.051 56.9693 332.889 56.9353 330.726 56.8593C329.609 56.8203 328.493 56.7923 327.293 56.7563C327.396 56.4323 327.465 56.1773 327.56 55.9293C330.117 49.2473 332.617 42.5403 335.259 35.8903C336.781 32.0573 339.751 29.8663 343.816 29.1983C344.622 29.0673 345.45 29.0393 346.267 29.0393C360.568 29.0313 374.871 29.0323 389.172 29.0323C389.522 29.0323 389.873 29.0323 390.215 29.0323C390.366 29.5713 390.157 29.9673 389.968 30.3543C389.498 31.3173 388.744 32.0233 387.871 32.6123C386.373 33.6193 384.694 34.1863 382.954 34.5803C380.22 35.2023 377.447 35.4253 374.652 35.4253C366.967 35.4233 359.283 35.4233 351.599 35.4233C351.273 35.4233 350.944 35.4233 350.506 35.4233C349.957 36.7563 349.402 38.1043 348.784 39.6013C351.362 39.6103 353.809 39.6043 356.256 39.6053C358.69 39.6063 361.124 39.6063 363.558 39.6063C366.018 39.6063 368.479 39.6063 370.941 39.6063C373.368 39.6063 375.793 39.6063 378.354 39.6063C378.193 40.0673 378.107 40.4053 377.96 40.7143C377.357 41.9633 376.358 42.8443 375.205 43.5653C373.536 44.6083 371.688 45.1863 369.777 45.5723C367.438 46.0453 365.068 46.2282 362.686 46.2322C357.463 46.2392 352.24 46.2343 347.017 46.2343C346.721 46.2333 346.424 46.2333 346.087 46.2333Z" fill="white"/>
<path fill-rule="evenodd" clip-rule="evenodd" d="M427.858 35.664C420.587 35.588 413.463 35.515 406.326 35.441C406.214 34.651 406.493 34.062 406.829 33.498C407.45 32.456 408.375 31.74 409.429 31.181C410.942 30.375 412.579 29.952 414.26 29.676C416.425 29.323 418.609 29.243 420.798 29.291C421.045 29.295 421.293 29.292 421.537 29.292C436.089 29.292 450.64 29.292 465.19 29.292C465.566 29.292 465.941 29.292 466.345 29.292C466.545 30.229 466.365 30.999 465.934 31.725C465.384 32.652 464.561 33.275 463.627 33.761C462.004 34.608 460.25 35.047 458.449 35.223C456.547 35.408 454.633 35.516 452.724 35.552C449.825 35.604 446.925 35.566 444.026 35.566C443.726 35.566 443.426 35.566 443.066 35.566C442.947 35.849 442.829 36.117 442.722 36.392C441.1 40.541 439.482 44.688 437.863 48.837C437.784 49.04 437.709 49.247 437.658 49.458C436.89 52.64 434.904 54.793 431.997 56.165C430.086 57.065 428.041 57.413 425.958 57.539C423.957 57.658 421.969 57.472 419.987 57.196C419.884 57.182 419.786 57.127 419.581 57.052C422.327 49.959 425.062 42.892 427.858 35.664Z" fill="white"/>
<path fill-rule="evenodd" clip-rule="evenodd" d="M213.937 50.272C214.021 51.066 213.722 51.619 213.386 52.147C212.783 53.093 211.917 53.755 210.95 54.294C209.233 55.251 207.363 55.745 205.444 56.084C203.177 56.485 200.885 56.635 198.586 56.638C192.159 56.646 185.732 56.649 179.306 56.635C177.137 56.633 174.998 56.35 172.912 55.747C172.286 55.566 171.672 55.317 171.087 55.027C169.63 54.312 169.08 53.053 169.221 51.509C169.292 50.73 169.471 49.93 169.761 49.206C172.456 42.486 175.184 35.784 177.906 29.074C177.947 28.974 178.007 28.882 178.065 28.776C178.139 28.755 178.216 28.712 178.291 28.715C180.312 28.76 182.34 28.727 184.351 28.894C185.56 28.994 186.75 29.387 187.937 29.689C188.328 29.789 188.699 29.996 189.053 30.198C190.768 31.173 191.296 32.586 190.608 34.43C189.683 36.914 188.731 39.386 187.79 41.863C186.87 44.29 185.949 46.715 185.031 49.143C184.936 49.394 184.854 49.649 184.722 50.027C194.492 50.109 204.177 50.19 213.937 50.272Z" fill="white"/>
<path fill-rule="evenodd" clip-rule="evenodd" d="M392.47 29.7855C393.006 29.7855 393.521 29.7715 394.036 29.7895C396.03 29.8545 398.025 29.8885 400.016 30.0255C400.765 30.0765 401.527 30.2974 402.232 30.5724C404.426 31.4304 405.391 33.2505 404.931 35.5645C404.835 36.0445 404.697 36.5224 404.52 36.9764C401.886 43.6644 399.243 50.3445 396.602 57.0275C396.541 57.1795 396.467 57.3275 396.398 57.4835C396.322 57.5095 396.244 57.5595 396.171 57.5565C393.986 57.4585 391.802 57.3814 389.621 57.2324C388.98 57.1874 388.333 56.9834 387.719 56.7664C385.09 55.8364 383.982 53.8474 384.407 51.0264C384.496 50.4384 384.674 49.8524 384.891 49.2944C387.294 43.0474 389.715 36.8074 392.132 30.5664C392.23 30.3134 392.346 30.0695 392.47 29.7855Z" fill="white"/>
<path fill-rule="evenodd" clip-rule="evenodd" d="M452.759 52.1655C449.768 52.1685 447.377 49.8045 447.371 46.8355C447.363 43.8135 449.762 41.4225 452.781 41.4435C455.765 41.4635 458.152 43.8555 458.146 46.8175C458.139 49.7785 455.738 52.1625 452.759 52.1655ZM455.4 50.7375C455.028 50.6115 454.914 50.3705 454.902 50.0365C454.879 49.5475 454.82 49.0595 454.773 48.5715C454.689 47.7135 454.396 47.4265 453.529 47.3905C453.012 47.3695 452.495 47.3785 451.977 47.3845C451.499 47.3895 451.021 47.4085 450.571 47.4215C450.309 48.6055 450.76 49.7555 450.257 50.8245C451.526 51.8175 453.992 51.8465 455.4 50.7375ZM455.725 50.4646C457.853 48.8796 458.123 45.7895 456.466 43.7815C454.608 41.5295 451.397 41.7085 450.1 43.0135C450.468 43.0275 450.752 43.0435 451.038 43.0515C452.019 43.0785 453.006 43.0395 453.979 43.1435C455.063 43.2595 455.603 43.9435 455.641 45.0255C455.672 45.8415 455.392 46.5085 454.623 46.9885C455.47 47.3165 455.459 48.0176 455.542 48.6626C455.616 49.2176 455.657 49.7806 455.725 50.4646ZM450.488 43.8045C450.488 44.5985 450.487 45.3025 450.492 46.0075C450.493 46.1925 450.52 46.3765 450.537 46.5515C451.223 46.6975 453.353 46.7045 453.896 46.5705C454.504 46.4205 454.836 46.0495 454.91 45.4365C455.023 44.5045 454.59 43.8895 453.623 43.8205C452.623 43.7475 451.615 43.8045 450.488 43.8045ZM449.737 50.3955C449.737 47.9605 449.737 45.6385 449.737 43.2815C447.664 44.5485 447.232 48.5195 449.737 50.3955Z" fill="white"/>
<path fill-rule="evenodd" clip-rule="evenodd" d="M22.9902 93.2934C27.6922 83.0644 32.3462 72.8124 37.1042 62.6104C45.5812 44.4434 54.1652 26.3244 62.6062 8.13939C65.1502 2.66039 69.1182 -0.106603 75.2452 0.0103973C82.8972 0.156397 90.5543 0.050397 98.2093 0.066397C99.1083 0.068397 100.007 0.148407 101.355 0.214407C98.9263 5.46841 96.6642 10.4224 94.3532 15.3534C83.4342 38.6604 72.4512 61.9364 61.6282 85.2884C59.8522 89.1184 57.0462 91.5264 53.4362 93.2934C43.2872 93.2934 33.1382 93.2934 22.9902 93.2934Z" fill="white"/>
<path fill-rule="evenodd" clip-rule="evenodd" d="M0.00100708 47.9322C2.28601 43.3232 4.638 38.7473 6.84 34.1023C11.794 23.6463 16.726 13.1792 21.537 2.65725C22.447 0.667247 23.562 -0.033759 25.735 0.00124096C33.797 0.128241 41.863 0.0382456 49.927 0.0622456C54.988 0.0762456 56.69 2.38825 54.609 6.89425C47.724 21.8062 40.721 36.6643 33.634 51.4813C33.198 52.3923 31.656 53.2972 30.613 53.3132C22.241 53.4552 13.863 53.5182 5.49501 53.2682C3.64201 53.2132 1.831 51.8173 0 51.0403C0.001 50.0043 0.00100708 48.9682 0.00100708 47.9322Z" fill="white"/>
</svg>
